<?xml version="1.0" encoding="utf-8" standalone="no"?>
<!DOCTYPE svg PUBLIC "-//W3C//DTD SVG 1.1//EN"
  "http://www.w3.org/Graphics/SVG/1.1/DTD/svg11.dtd">
<!-- Created with matplotlib (https://matplotlib.org/) -->
<svg height="324.916596pt" version="1.1" viewBox="0 0 349.168125 324.916596" width="349.168125pt" xmlns="http://www.w3.org/2000/svg" xmlns:xlink="http://www.w3.org/1999/xlink">
 <defs>
  <style type="text/css">
*{stroke-linecap:butt;stroke-linejoin:round;}
  </style>
 </defs>
 <g id="figure_1">
  <g id="patch_1">
   <path d="M 0 324.916596 
L 349.168125 324.916596 
L 349.168125 0 
L 0 0 
z
" style="fill:none;"/>
  </g>
  <g id="axes_1">
   <g id="patch_2">
    <path d="M 283.304062 182.22225 
C 283.304062 167.94527 280.491809 153.807116 275.028245 140.616907 
C 269.564682 127.426698 261.556061 115.44095 251.460712 105.345601 
C 241.365363 95.250252 229.379614 87.241631 216.189405 81.778067 
C 202.999196 76.314504 188.861042 73.50225 174.584063 73.50225 
C 160.307083 73.50225 146.168929 76.314504 132.97872 81.778067 
C 119.788511 87.241631 107.802762 95.250252 97.707413 105.345601 
C 87.612064 115.44095 79.603443 127.426698 74.13988 140.616907 
C 68.676316 153.807116 65.864063 167.94527 65.864063 182.22225 
C 65.864063 196.49923 68.676316 210.637384 74.13988 223.827593 
C 79.603443 237.017802 87.612064 249.00355 97.707413 259.098899 
C 107.802762 269.194248 119.788511 277.202869 132.97872 282.666433 
C 146.168929 288.129996 160.307083 290.94225 174.584062 290.94225 
C 188.861042 290.94225 202.999196 288.129996 216.189405 282.666433 
C 229.379614 277.202869 241.365363 269.194248 251.460712 259.098899 
C 261.556061 249.00355 269.564682 237.017802 275.028245 223.827593 
C 280.491809 210.637384 283.304062 196.49923 283.304062 182.22225 
M 174.584063 182.22225 
C 174.584063 182.22225 174.584063 182.22225 174.584063 182.22225 
C 174.584063 182.22225 174.584063 182.22225 174.584063 182.22225 
C 174.584063 182.22225 174.584063 182.22225 174.584063 182.22225 
C 174.584063 182.22225 174.584063 182.22225 174.584063 182.22225 
C 174.584063 182.22225 174.584063 182.22225 174.584063 182.22225 
C 174.584063 182.22225 174.584063 182.22225 174.584063 182.22225 
C 174.584063 182.22225 174.584063 182.22225 174.584063 182.22225 
C 174.584063 182.22225 174.584063 182.22225 174.584063 182.22225 
C 174.584063 182.22225 174.584063 182.22225 174.584063 182.22225 
C 174.584063 182.22225 174.584063 182.22225 174.584063 182.22225 
C 174.584063 182.22225 174.584063 182.22225 174.584063 182.22225 
C 174.584063 182.22225 174.584063 182.22225 174.584063 182.22225 
C 174.584063 182.22225 174.584063 182.22225 174.584063 182.22225 
C 174.584063 182.22225 174.584063 182.22225 174.584063 182.22225 
C 174.584063 182.22225 174.584063 182.22225 174.584063 182.22225 
C 174.584063 182.22225 174.584063 182.22225 174.584063 182.22225 
M 283.304062 182.22225 
z
" style="fill:#ffffff;"/>
   </g>
   <g id="matplotlib.axis_1">
    <g id="xtick_1">
     <g id="line2d_1">
      <path clip-path="url(#pd9f728325f)" d="M 174.584063 182.22225 
L 283.304062 182.22225 
" style="fill:none;stroke:#b0b0b0;stroke-linecap:square;stroke-width:0.8;"/>
     </g>
     <g id="text_1">
      <!-- 06:00 -->
      <defs>
       <path d="M 31.78125 66.40625 
Q 24.171875 66.40625 20.328125 58.90625 
Q 16.5 51.421875 16.5 36.375 
Q 16.5 21.390625 20.328125 13.890625 
Q 24.171875 6.390625 31.78125 6.390625 
Q 39.453125 6.390625 43.28125 13.890625 
Q 47.125 21.390625 47.125 36.375 
Q 47.125 51.421875 43.28125 58.90625 
Q 39.453125 66.40625 31.78125 66.40625 
z
M 31.78125 74.21875 
Q 44.046875 74.21875 50.515625 64.515625 
Q 56.984375 54.828125 56.984375 36.375 
Q 56.984375 17.96875 50.515625 8.265625 
Q 44.046875 -1.421875 31.78125 -1.421875 
Q 19.53125 -1.421875 13.0625 8.265625 
Q 6.59375 17.96875 6.59375 36.375 
Q 6.59375 54.828125 13.0625 64.515625 
Q 19.53125 74.21875 31.78125 74.21875 
z
" id="DejaVuSans-48"/>
       <path d="M 33.015625 40.375 
Q 26.375 40.375 22.484375 35.828125 
Q 18.609375 31.296875 18.609375 23.390625 
Q 18.609375 15.53125 22.484375 10.953125 
Q 26.375 6.390625 33.015625 6.390625 
Q 39.65625 6.390625 43.53125 10.953125 
Q 47.40625 15.53125 47.40625 23.390625 
Q 47.40625 31.296875 43.53125 35.828125 
Q 39.65625 40.375 33.015625 40.375 
z
M 52.59375 71.296875 
L 52.59375 62.3125 
Q 48.875 64.0625 45.09375 64.984375 
Q 41.3125 65.921875 37.59375 65.921875 
Q 27.828125 65.921875 22.671875 59.328125 
Q 17.53125 52.734375 16.796875 39.40625 
Q 19.671875 43.65625 24.015625 45.921875 
Q 28.375 48.1875 33.59375 48.1875 
Q 44.578125 48.1875 50.953125 41.515625 
Q 57.328125 34.859375 57.328125 23.390625 
Q 57.328125 12.15625 50.6875 5.359375 
Q 44.046875 -1.421875 33.015625 -1.421875 
Q 20.359375 -1.421875 13.671875 8.265625 
Q 6.984375 17.96875 6.984375 36.375 
Q 6.984375 53.65625 15.1875 63.9375 
Q 23.390625 74.21875 37.203125 74.21875 
Q 40.921875 74.21875 44.703125 73.484375 
Q 48.484375 72.75 52.59375 71.296875 
z
" id="DejaVuSans-54"/>
       <path d="M 11.71875 12.40625 
L 22.015625 12.40625 
L 22.015625 0 
L 11.71875 0 
z
M 11.71875 51.703125 
L 22.015625 51.703125 
L 22.015625 39.3125 
L 11.71875 39.3125 
z
" id="DejaVuSans-58"/>
      </defs>
      <g transform="translate(282.894687 184.981625)scale(0.1 -0.1)">
       <use xlink:href="#DejaVuSans-48"/>
       <use x="63.623047" xlink:href="#DejaVuSans-54"/>
       <use x="127.246094" xlink:href="#DejaVuSans-58"/>
       <use x="160.9375" xlink:href="#DejaVuSans-48"/>
       <use x="224.560547" xlink:href="#DejaVuSans-48"/>
      </g>
     </g>
    </g>
    <g id="xtick_2">
     <g id="line2d_2">
      <path clip-path="url(#pd9f728325f)" d="M 174.584063 182.22225 
L 174.584063 73.50225 
" style="fill:none;stroke:#b0b0b0;stroke-linecap:square;stroke-width:0.8;"/>
     </g>
     <g id="text_2">
      <!-- 00:00 -->
      <g transform="translate(160.174688 62.261625)scale(0.1 -0.1)">
       <use xlink:href="#DejaVuSans-48"/>
       <use x="63.623047" xlink:href="#DejaVuSans-48"/>
       <use x="127.246094" xlink:href="#DejaVuSans-58"/>
       <use x="160.9375" xlink:href="#DejaVuSans-48"/>
       <use x="224.560547" xlink:href="#DejaVuSans-48"/>
      </g>
     </g>
    </g>
    <g id="xtick_3">
     <g id="line2d_3">
      <path clip-path="url(#pd9f728325f)" d="M 174.584063 182.22225 
L 65.864063 182.22225 
" style="fill:none;stroke:#b0b0b0;stroke-linecap:square;stroke-width:0.8;"/>
     </g>
     <g id="text_3">
      <!-- 18:00 -->
      <defs>
       <path d="M 12.40625 8.296875 
L 28.515625 8.296875 
L 28.515625 63.921875 
L 10.984375 60.40625 
L 10.984375 69.390625 
L 28.421875 72.90625 
L 38.28125 72.90625 
L 38.28125 8.296875 
L 54.390625 8.296875 
L 54.390625 0 
L 12.40625 0 
z
" id="DejaVuSans-49"/>
       <path d="M 31.78125 34.625 
Q 24.75 34.625 20.71875 30.859375 
Q 16.703125 27.09375 16.703125 20.515625 
Q 16.703125 13.921875 20.71875 10.15625 
Q 24.75 6.390625 31.78125 6.390625 
Q 38.8125 6.390625 42.859375 10.171875 
Q 46.921875 13.96875 46.921875 20.515625 
Q 46.921875 27.09375 42.890625 30.859375 
Q 38.875 34.625 31.78125 34.625 
z
M 21.921875 38.8125 
Q 15.578125 40.375 12.03125 44.71875 
Q 8.5 49.078125 8.5 55.328125 
Q 8.5 64.0625 14.71875 69.140625 
Q 20.953125 74.21875 31.78125 74.21875 
Q 42.671875 74.21875 48.875 69.140625 
Q 55.078125 64.0625 55.078125 55.328125 
Q 55.078125 49.078125 51.53125 44.71875 
Q 48 40.375 41.703125 38.8125 
Q 48.828125 37.15625 52.796875 32.3125 
Q 56.78125 27.484375 56.78125 20.515625 
Q 56.78125 9.90625 50.3125 4.234375 
Q 43.84375 -1.421875 31.78125 -1.421875 
Q 19.734375 -1.421875 13.25 4.234375 
Q 6.78125 9.90625 6.78125 20.515625 
Q 6.78125 27.484375 10.78125 32.3125 
Q 14.796875 37.15625 21.921875 38.8125 
z
M 18.3125 54.390625 
Q 18.3125 48.734375 21.84375 45.5625 
Q 25.390625 42.390625 31.78125 42.390625 
Q 38.140625 42.390625 41.71875 45.5625 
Q 45.3125 48.734375 45.3125 54.390625 
Q 45.3125 60.0625 41.71875 63.234375 
Q 38.140625 66.40625 31.78125 66.40625 
Q 25.390625 66.40625 21.84375 63.234375 
Q 18.3125 60.0625 18.3125 54.390625 
z
" id="DejaVuSans-56"/>
      </defs>
      <g transform="translate(37.454688 184.981625)scale(0.1 -0.1)">
       <use xlink:href="#DejaVuSans-49"/>
       <use x="63.623047" xlink:href="#DejaVuSans-56"/>
       <use x="127.246094" xlink:href="#DejaVuSans-58"/>
       <use x="160.9375" xlink:href="#DejaVuSans-48"/>
       <use x="224.560547" xlink:href="#DejaVuSans-48"/>
      </g>
     </g>
    </g>
    <g id="xtick_4">
     <g id="line2d_4">
      <path clip-path="url(#pd9f728325f)" d="M 174.584063 182.22225 
L 174.584062 290.94225 
" style="fill:none;stroke:#b0b0b0;stroke-linecap:square;stroke-width:0.8;"/>
     </g>
     <g id="text_4">
      <!-- 12:00 -->
      <defs>
       <path d="M 19.1875 8.296875 
L 53.609375 8.296875 
L 53.609375 0 
L 7.328125 0 
L 7.328125 8.296875 
Q 12.9375 14.109375 22.625 23.890625 
Q 32.328125 33.6875 34.8125 36.53125 
Q 39.546875 41.84375 41.421875 45.53125 
Q 43.3125 49.21875 43.3125 52.78125 
Q 43.3125 58.59375 39.234375 62.25 
Q 35.15625 65.921875 28.609375 65.921875 
Q 23.96875 65.921875 18.8125 64.3125 
Q 13.671875 62.703125 7.8125 59.421875 
L 7.8125 69.390625 
Q 13.765625 71.78125 18.9375 73 
Q 24.125 74.21875 28.421875 74.21875 
Q 39.75 74.21875 46.484375 68.546875 
Q 53.21875 62.890625 53.21875 53.421875 
Q 53.21875 48.921875 51.53125 44.890625 
Q 49.859375 40.875 45.40625 35.40625 
Q 44.1875 33.984375 37.640625 27.21875 
Q 31.109375 20.453125 19.1875 8.296875 
z
" id="DejaVuSans-50"/>
      </defs>
      <g transform="translate(160.174687 307.701625)scale(0.1 -0.1)">
       <use xlink:href="#DejaVuSans-49"/>
       <use x="63.623047" xlink:href="#DejaVuSans-50"/>
       <use x="127.246094" xlink:href="#DejaVuSans-58"/>
       <use x="160.9375" xlink:href="#DejaVuSans-48"/>
       <use x="224.560547" xlink:href="#DejaVuSans-48"/>
      </g>
     </g>
    </g>
   </g>
   <g id="matplotlib.axis_2">
    <g id="ytick_1">
     <g id="line2d_5">
      <path clip-path="url(#pd9f728325f)" d="M 273.420426 182.22225 
L 273.360218 178.772911 
L 273.179666 175.327774 
L 272.87899 171.891037 
L 272.458557 168.466887 
L 271.91888 165.059496 
L 271.260614 161.673015 
L 270.484564 158.31157 
L 269.591673 154.979256 
L 268.58303 151.680134 
L 267.459864 148.418223 
L 266.223543 145.197497 
L 264.875574 142.021879 
L 263.417598 138.89524 
L 261.851392 135.821388 
L 260.178864 132.804068 
L 258.402053 129.846957 
L 256.523121 126.953657 
L 254.54436 124.127693 
L 252.46818 121.372509 
L 250.29711 118.69146 
L 248.033795 116.087814 
L 245.680993 113.564743 
L 243.24157 111.12532 
L 240.718498 108.772518 
L 238.114852 106.509203 
L 235.433804 104.338133 
L 232.678619 102.261952 
L 229.852656 100.283191 
L 226.959356 98.40426 
L 224.002244 96.627448 
L 220.984925 94.954921 
L 217.911073 93.388715 
L 214.784433 91.930739 
L 211.608816 90.582769 
L 208.38809 89.346448 
L 205.126179 88.223282 
L 201.827056 87.214639 
L 198.494743 86.321749 
L 195.133298 85.545698 
L 191.746817 84.887433 
L 188.339426 84.347755 
L 184.915276 83.927322 
L 181.478539 83.626647 
L 178.033402 83.446095 
L 174.584063 83.385886 
L 171.134723 83.446095 
L 167.689586 83.626647 
L 164.252849 83.927322 
L 160.828699 84.347755 
L 157.421308 84.887433 
L 154.034827 85.545698 
L 150.673382 86.321749 
L 147.341069 87.214639 
L 144.041946 88.223282 
L 140.780035 89.346448 
L 137.559309 90.582769 
L 134.383692 91.930739 
L 131.257052 93.388715 
L 128.1832 94.954921 
L 125.165881 96.627448 
L 122.208769 98.40426 
L 119.315469 100.283191 
L 116.489506 102.261952 
L 113.734321 104.338133 
L 111.053273 106.509203 
L 108.449627 108.772518 
L 105.926555 111.12532 
L 103.487132 113.564743 
L 101.13433 116.087814 
L 98.871015 118.69146 
L 96.699945 121.372509 
L 94.623765 124.127693 
L 92.645004 126.953657 
L 90.766072 129.846957 
L 88.989261 132.804068 
L 87.316733 135.821388 
L 85.750527 138.89524 
L 84.292551 142.021879 
L 82.944582 145.197497 
L 81.708261 148.418223 
L 80.585095 151.680134 
L 79.576452 154.979256 
L 78.683561 158.31157 
L 77.907511 161.673015 
L 77.249245 165.059496 
L 76.709568 168.466887 
L 76.289135 171.891037 
L 75.988459 175.327774 
L 75.807907 178.772911 
L 75.747699 182.22225 
L 75.807907 185.671589 
L 75.988459 189.116726 
L 76.289135 192.553463 
L 76.709568 195.977613 
L 77.249245 199.385004 
L 77.907511 202.771485 
L 78.683561 206.13293 
L 79.576452 209.465244 
L 80.585095 212.764366 
L 81.708261 216.026277 
L 82.944582 219.247003 
L 84.292551 222.422621 
L 85.750527 225.54926 
L 87.316733 228.623112 
L 88.989261 231.640432 
L 90.766072 234.597543 
L 92.645004 237.490843 
L 94.623765 240.316807 
L 96.699945 243.071991 
L 98.871015 245.75304 
L 101.13433 248.356686 
L 103.487132 250.879757 
L 105.926555 253.31918 
L 108.449627 255.671982 
L 111.053273 257.935297 
L 113.734321 260.106367 
L 116.489506 262.182548 
L 119.315469 264.161309 
L 122.208769 266.04024 
L 125.165881 267.817052 
L 128.1832 269.489579 
L 131.257052 271.055785 
L 134.383692 272.513761 
L 137.559309 273.861731 
L 140.780035 275.098052 
L 144.041946 276.221218 
L 147.341069 277.229861 
L 150.673382 278.122751 
L 154.034827 278.898802 
L 157.421308 279.557067 
L 160.828699 280.096745 
L 164.252849 280.517178 
L 167.689586 280.817853 
L 171.134723 280.998405 
L 174.584062 281.058614 
L 178.033402 280.998405 
L 181.478539 280.817853 
L 184.915276 280.517178 
L 188.339426 280.096745 
L 191.746817 279.557067 
L 195.133298 278.898802 
L 198.494743 278.122751 
L 201.827056 277.229861 
L 205.126179 276.221218 
L 208.38809 275.098052 
L 211.608816 273.861731 
L 214.784433 272.513761 
L 217.911073 271.055785 
L 220.984925 269.489579 
L 224.002244 267.817052 
L 226.959356 266.04024 
L 229.852656 264.161309 
L 232.678619 262.182548 
L 235.433804 260.106367 
L 238.114852 257.935297 
L 240.718498 255.671982 
L 243.24157 253.31918 
L 245.680993 250.879757 
L 248.033795 248.356686 
L 250.29711 245.75304 
L 252.46818 243.071991 
L 254.54436 240.316807 
L 256.523121 237.490843 
L 258.402053 234.597543 
L 260.178864 231.640432 
L 261.851392 228.623112 
L 263.417598 225.54926 
L 264.875574 222.422621 
L 266.223543 219.247003 
L 267.459864 216.026277 
L 268.58303 212.764366 
L 269.591673 209.465244 
L 270.484564 206.13293 
L 271.260614 202.771485 
L 271.91888 199.385004 
L 272.458557 195.977613 
L 272.87899 192.553463 
L 273.179666 189.116726 
L 273.360218 185.671589 
L 273.420426 182.22225 
L 273.420426 182.22225 
" style="fill:none;stroke:#b0b0b0;stroke-linecap:square;stroke-width:0.8;"/>
     </g>
    </g>
   </g>
   <g id="line2d_6">
    <defs>
     <path d="M 0 -6 
L -1.347084 -1.854102 
L -5.706339 -1.854102 
L -2.179628 0.708204 
L -3.526712 4.854102 
L -0 2.291796 
L 3.526712 4.854102 
L 2.179628 0.708204 
L 5.706339 -1.854102 
L 1.347084 -1.854102 
z
" id="m6b71562ebc" style="stroke:#0000ff;stroke-linejoin:bevel;stroke-opacity:0.5;"/>
    </defs>
    <g clip-path="url(#pd9f728325f)">
     <use style="fill:#0000ff;fill-opacity:0.5;stroke:#0000ff;stroke-linejoin:bevel;stroke-opacity:0.5;" x="174.584063" xlink:href="#m6b71562ebc" y="83.385886"/>
     <use style="fill:#0000ff;fill-opacity:0.5;stroke:#0000ff;stroke-linejoin:bevel;stroke-opacity:0.5;" x="175.015316" xlink:href="#m6b71562ebc" y="83.386827"/>
     <use style="fill:#0000ff;fill-opacity:0.5;stroke:#0000ff;stroke-linejoin:bevel;stroke-opacity:0.5;" x="179.756758" xlink:href="#m6b71562ebc" y="83.521338"/>
     <use style="fill:#0000ff;fill-opacity:0.5;stroke:#0000ff;stroke-linejoin:bevel;stroke-opacity:0.5;" x="200.581111" xlink:href="#m6b71562ebc" y="86.866179"/>
     <use style="fill:#0000ff;fill-opacity:0.5;stroke:#0000ff;stroke-linejoin:bevel;stroke-opacity:0.5;" x="200.996932" xlink:href="#m6b71562ebc" y="86.98052"/>
     <use style="fill:#0000ff;fill-opacity:0.5;stroke:#0000ff;stroke-linejoin:bevel;stroke-opacity:0.5;" x="209.6009" xlink:href="#m6b71562ebc" y="89.796886"/>
     <use style="fill:#0000ff;fill-opacity:0.5;stroke:#0000ff;stroke-linejoin:bevel;stroke-opacity:0.5;" x="224.747309" xlink:href="#m6b71562ebc" y="97.061957"/>
     <use style="fill:#0000ff;fill-opacity:0.5;stroke:#0000ff;stroke-linejoin:bevel;stroke-opacity:0.5;" x="225.118412" xlink:href="#m6b71562ebc" y="97.281645"/>
     <use style="fill:#0000ff;fill-opacity:0.5;stroke:#0000ff;stroke-linejoin:bevel;stroke-opacity:0.5;" x="236.111145" xlink:href="#m6b71562ebc" y="104.872106"/>
     <use style="fill:#0000ff;fill-opacity:0.5;stroke:#0000ff;stroke-linejoin:bevel;stroke-opacity:0.5;" x="245.380742" xlink:href="#m6b71562ebc" y="113.255178"/>
     <use style="fill:#0000ff;fill-opacity:0.5;stroke:#0000ff;stroke-linejoin:bevel;stroke-opacity:0.5;" x="245.680993" xlink:href="#m6b71562ebc" y="113.564743"/>
     <use style="fill:#0000ff;fill-opacity:0.5;stroke:#0000ff;stroke-linejoin:bevel;stroke-opacity:0.5;" x="256.763495" xlink:href="#m6b71562ebc" y="127.311708"/>
     <use style="fill:#0000ff;fill-opacity:0.5;stroke:#0000ff;stroke-linejoin:bevel;stroke-opacity:0.5;" x="261.028294" xlink:href="#m6b71562ebc" y="134.30543"/>
     <use style="fill:#0000ff;fill-opacity:0.5;stroke:#0000ff;stroke-linejoin:bevel;stroke-opacity:0.5;" x="261.236547" xlink:href="#m6b71562ebc" y="134.683069"/>
     <use style="fill:#0000ff;fill-opacity:0.5;stroke:#0000ff;stroke-linejoin:bevel;stroke-opacity:0.5;" x="269.591673" xlink:href="#m6b71562ebc" y="154.979256"/>
     <use style="fill:#0000ff;fill-opacity:0.5;stroke:#0000ff;stroke-linejoin:bevel;stroke-opacity:0.5;" x="270.587981" xlink:href="#m6b71562ebc" y="158.730241"/>
     <use style="fill:#0000ff;fill-opacity:0.5;stroke:#0000ff;stroke-linejoin:bevel;stroke-opacity:0.5;" x="270.68957" xlink:href="#m6b71562ebc" y="159.149359"/>
     <use style="fill:#0000ff;fill-opacity:0.5;stroke:#0000ff;stroke-linejoin:bevel;stroke-opacity:0.5;" x="273.386557" xlink:href="#m6b71562ebc" y="184.809484"/>
     <use style="fill:#0000ff;fill-opacity:0.5;stroke:#0000ff;stroke-linejoin:bevel;stroke-opacity:0.5;" x="273.374328" xlink:href="#m6b71562ebc" y="185.240566"/>
     <use style="fill:#0000ff;fill-opacity:0.5;stroke:#0000ff;stroke-linejoin:bevel;stroke-opacity:0.5;" x="269.226934" xlink:href="#m6b71562ebc" y="210.706521"/>
     <use style="fill:#0000ff;fill-opacity:0.5;stroke:#0000ff;stroke-linejoin:bevel;stroke-opacity:0.5;" x="269.101747" xlink:href="#m6b71562ebc" y="211.119206"/>
     <use style="fill:#0000ff;fill-opacity:0.5;stroke:#0000ff;stroke-linejoin:bevel;stroke-opacity:0.5;" x="258.402053" xlink:href="#m6b71562ebc" y="234.597543"/>
     <use style="fill:#0000ff;fill-opacity:0.5;stroke:#0000ff;stroke-linejoin:bevel;stroke-opacity:0.5;" x="258.172725" xlink:href="#m6b71562ebc" y="234.962768"/>
     <use style="fill:#0000ff;fill-opacity:0.5;stroke:#0000ff;stroke-linejoin:bevel;stroke-opacity:0.5;" x="257.475212" xlink:href="#m6b71562ebc" y="236.052392"/>
     <use style="fill:#0000ff;fill-opacity:0.5;stroke:#0000ff;stroke-linejoin:bevel;stroke-opacity:0.5;" x="241.67426" xlink:href="#m6b71562ebc" y="254.800017"/>
     <use style="fill:#0000ff;fill-opacity:0.5;stroke:#0000ff;stroke-linejoin:bevel;stroke-opacity:0.5;" x="220.221616" xlink:href="#m6b71562ebc" y="269.891175"/>
     <use style="fill:#0000ff;fill-opacity:0.5;stroke:#0000ff;stroke-linejoin:bevel;stroke-opacity:0.5;" x="195.554932" xlink:href="#m6b71562ebc" y="278.808219"/>
     <use style="fill:#0000ff;fill-opacity:0.5;stroke:#0000ff;stroke-linejoin:bevel;stroke-opacity:0.5;" x="187.484797" xlink:href="#m6b71562ebc" y="280.213055"/>
     <use style="fill:#0000ff;fill-opacity:0.5;stroke:#0000ff;stroke-linejoin:bevel;stroke-opacity:0.5;" x="173.290334" xlink:href="#m6b71562ebc" y="281.050146"/>
     <use style="fill:#0000ff;fill-opacity:0.5;stroke:#0000ff;stroke-linejoin:bevel;stroke-opacity:0.5;" x="171.134723" xlink:href="#m6b71562ebc" y="280.998405"/>
     <use style="fill:#0000ff;fill-opacity:0.5;stroke:#0000ff;stroke-linejoin:bevel;stroke-opacity:0.5;" x="169.411367" xlink:href="#m6b71562ebc" y="280.923162"/>
     <use style="fill:#0000ff;fill-opacity:0.5;stroke:#0000ff;stroke-linejoin:bevel;stroke-opacity:0.5;" x="159.975118" xlink:href="#m6b71562ebc" y="279.972982"/>
     <use style="fill:#0000ff;fill-opacity:0.5;stroke:#0000ff;stroke-linejoin:bevel;stroke-opacity:0.5;" x="143.632091" xlink:href="#m6b71562ebc" y="276.087058"/>
     <use style="fill:#0000ff;fill-opacity:0.5;stroke:#0000ff;stroke-linejoin:bevel;stroke-opacity:0.5;" x="120.032618" xlink:href="#m6b71562ebc" y="264.640492"/>
     <use style="fill:#0000ff;fill-opacity:0.5;stroke:#0000ff;stroke-linejoin:bevel;stroke-opacity:0.5;" x="100.27495" xlink:href="#m6b71562ebc" y="247.389593"/>
     <use style="fill:#0000ff;fill-opacity:0.5;stroke:#0000ff;stroke-linejoin:bevel;stroke-opacity:0.5;" x="85.750527" xlink:href="#m6b71562ebc" y="225.54926"/>
     <use style="fill:#0000ff;fill-opacity:0.5;stroke:#0000ff;stroke-linejoin:bevel;stroke-opacity:0.5;" x="77.482238" xlink:href="#m6b71562ebc" y="200.657607"/>
     <use style="fill:#0000ff;fill-opacity:0.5;stroke:#0000ff;stroke-linejoin:bevel;stroke-opacity:0.5;" x="76.052378" xlink:href="#m6b71562ebc" y="174.467638"/>
     <use style="fill:#0000ff;fill-opacity:0.5;stroke:#0000ff;stroke-linejoin:bevel;stroke-opacity:0.5;" x="81.561648" xlink:href="#m6b71562ebc" y="148.82379"/>
     <use style="fill:#0000ff;fill-opacity:0.5;stroke:#0000ff;stroke-linejoin:bevel;stroke-opacity:0.5;" x="93.622053" xlink:href="#m6b71562ebc" y="125.532041"/>
     <use style="fill:#0000ff;fill-opacity:0.5;stroke:#0000ff;stroke-linejoin:bevel;stroke-opacity:0.5;" x="111.384237" xlink:href="#m6b71562ebc" y="106.232719"/>
     <use style="fill:#0000ff;fill-opacity:0.5;stroke:#0000ff;stroke-linejoin:bevel;stroke-opacity:0.5;" x="133.59729" xlink:href="#m6b71562ebc" y="92.284987"/>
     <use style="fill:#0000ff;fill-opacity:0.5;stroke:#0000ff;stroke-linejoin:bevel;stroke-opacity:0.5;" x="150.673382" xlink:href="#m6b71562ebc" y="86.321749"/>
     <use style="fill:#0000ff;fill-opacity:0.5;stroke:#0000ff;stroke-linejoin:bevel;stroke-opacity:0.5;" x="158.696852" xlink:href="#m6b71562ebc" y="84.671118"/>
     <use style="fill:#0000ff;fill-opacity:0.5;stroke:#0000ff;stroke-linejoin:bevel;stroke-opacity:0.5;" x="168.119855" xlink:href="#m6b71562ebc" y="83.597503"/>
    </g>
   </g>
   <g id="patch_3">
    <path d="M 137.442969 297.936352 
Q 141.873906 294.378644 146.304844 290.820935 
L 145.115283 289.3394 
Q 147.302216 288.865912 149.489149 288.392423 
Q 148.554386 290.425422 147.619622 292.458421 
L 146.430061 290.976886 
Q 141.999123 294.534595 137.568186 298.092303 
L 137.442969 297.936352 
z
" style="stroke:#000000;stroke-linecap:round;"/>
   </g>
   <g id="text_5">
    <!-- 12:34 makes my day! -->
    <defs>
     <path d="M 40.578125 39.3125 
Q 47.65625 37.796875 51.625 33 
Q 55.609375 28.21875 55.609375 21.1875 
Q 55.609375 10.40625 48.1875 4.484375 
Q 40.765625 -1.421875 27.09375 -1.421875 
Q 22.515625 -1.421875 17.65625 -0.515625 
Q 12.796875 0.390625 7.625 2.203125 
L 7.625 11.71875 
Q 11.71875 9.328125 16.59375 8.109375 
Q 21.484375 6.890625 26.8125 6.890625 
Q 36.078125 6.890625 40.9375 10.546875 
Q 45.796875 14.203125 45.796875 21.1875 
Q 45.796875 27.640625 41.28125 31.265625 
Q 36.765625 34.90625 28.71875 34.90625 
L 20.21875 34.90625 
L 20.21875 43.015625 
L 29.109375 43.015625 
Q 36.375 43.015625 40.234375 45.921875 
Q 44.09375 48.828125 44.09375 54.296875 
Q 44.09375 59.90625 40.109375 62.90625 
Q 36.140625 65.921875 28.71875 65.921875 
Q 24.65625 65.921875 20.015625 65.03125 
Q 15.375 64.15625 9.8125 62.3125 
L 9.8125 71.09375 
Q 15.4375 72.65625 20.34375 73.4375 
Q 25.25 74.21875 29.59375 74.21875 
Q 40.828125 74.21875 47.359375 69.109375 
Q 53.90625 64.015625 53.90625 55.328125 
Q 53.90625 49.265625 50.4375 45.09375 
Q 46.96875 40.921875 40.578125 39.3125 
z
" id="DejaVuSans-51"/>
     <path d="M 37.796875 64.3125 
L 12.890625 25.390625 
L 37.796875 25.390625 
z
M 35.203125 72.90625 
L 47.609375 72.90625 
L 47.609375 25.390625 
L 58.015625 25.390625 
L 58.015625 17.1875 
L 47.609375 17.1875 
L 47.609375 0 
L 37.796875 0 
L 37.796875 17.1875 
L 4.890625 17.1875 
L 4.890625 26.703125 
z
" id="DejaVuSans-52"/>
     <path id="DejaVuSans-32"/>
     <path d="M 52 44.1875 
Q 55.375 50.25 60.0625 53.125 
Q 64.75 56 71.09375 56 
Q 79.640625 56 84.28125 50.015625 
Q 88.921875 44.046875 88.921875 33.015625 
L 88.921875 0 
L 79.890625 0 
L 79.890625 32.71875 
Q 79.890625 40.578125 77.09375 44.375 
Q 74.3125 48.1875 68.609375 48.1875 
Q 61.625 48.1875 57.5625 43.546875 
Q 53.515625 38.921875 53.515625 30.90625 
L 53.515625 0 
L 44.484375 0 
L 44.484375 32.71875 
Q 44.484375 40.625 41.703125 44.40625 
Q 38.921875 48.1875 33.109375 48.1875 
Q 26.21875 48.1875 22.15625 43.53125 
Q 18.109375 38.875 18.109375 30.90625 
L 18.109375 0 
L 9.078125 0 
L 9.078125 54.6875 
L 18.109375 54.6875 
L 18.109375 46.1875 
Q 21.1875 51.21875 25.484375 53.609375 
Q 29.78125 56 35.6875 56 
Q 41.65625 56 45.828125 52.96875 
Q 50 49.953125 52 44.1875 
z
" id="DejaVuSans-109"/>
     <path d="M 34.28125 27.484375 
Q 23.390625 27.484375 19.1875 25 
Q 14.984375 22.515625 14.984375 16.5 
Q 14.984375 11.71875 18.140625 8.90625 
Q 21.296875 6.109375 26.703125 6.109375 
Q 34.1875 6.109375 38.703125 11.40625 
Q 43.21875 16.703125 43.21875 25.484375 
L 43.21875 27.484375 
z
M 52.203125 31.203125 
L 52.203125 0 
L 43.21875 0 
L 43.21875 8.296875 
Q 40.140625 3.328125 35.546875 0.953125 
Q 30.953125 -1.421875 24.3125 -1.421875 
Q 15.921875 -1.421875 10.953125 3.296875 
Q 6 8.015625 6 15.921875 
Q 6 25.140625 12.171875 29.828125 
Q 18.359375 34.515625 30.609375 34.515625 
L 43.21875 34.515625 
L 43.21875 35.40625 
Q 43.21875 41.609375 39.140625 45 
Q 35.0625 48.390625 27.6875 48.390625 
Q 23 48.390625 18.546875 47.265625 
Q 14.109375 46.140625 10.015625 43.890625 
L 10.015625 52.203125 
Q 14.9375 54.109375 19.578125 55.046875 
Q 24.21875 56 28.609375 56 
Q 40.484375 56 46.34375 49.84375 
Q 52.203125 43.703125 52.203125 31.203125 
z
" id="DejaVuSans-97"/>
     <path d="M 9.078125 75.984375 
L 18.109375 75.984375 
L 18.109375 31.109375 
L 44.921875 54.6875 
L 56.390625 54.6875 
L 27.390625 29.109375 
L 57.625 0 
L 45.90625 0 
L 18.109375 26.703125 
L 18.109375 0 
L 9.078125 0 
z
" id="DejaVuSans-107"/>
     <path d="M 56.203125 29.59375 
L 56.203125 25.203125 
L 14.890625 25.203125 
Q 15.484375 15.921875 20.484375 11.0625 
Q 25.484375 6.203125 34.421875 6.203125 
Q 39.59375 6.203125 44.453125 7.46875 
Q 49.3125 8.734375 54.109375 11.28125 
L 54.109375 2.78125 
Q 49.265625 0.734375 44.1875 -0.34375 
Q 39.109375 -1.421875 33.890625 -1.421875 
Q 20.796875 -1.421875 13.15625 6.1875 
Q 5.515625 13.8125 5.515625 26.8125 
Q 5.515625 40.234375 12.765625 48.109375 
Q 20.015625 56 32.328125 56 
Q 43.359375 56 49.78125 48.890625 
Q 56.203125 41.796875 56.203125 29.59375 
z
M 47.21875 32.234375 
Q 47.125 39.59375 43.09375 43.984375 
Q 39.0625 48.390625 32.421875 48.390625 
Q 24.90625 48.390625 20.390625 44.140625 
Q 15.875 39.890625 15.1875 32.171875 
z
" id="DejaVuSans-101"/>
     <path d="M 44.28125 53.078125 
L 44.28125 44.578125 
Q 40.484375 46.53125 36.375 47.5 
Q 32.28125 48.484375 27.875 48.484375 
Q 21.1875 48.484375 17.84375 46.4375 
Q 14.5 44.390625 14.5 40.28125 
Q 14.5 37.15625 16.890625 35.375 
Q 19.28125 33.59375 26.515625 31.984375 
L 29.59375 31.296875 
Q 39.15625 29.25 43.1875 25.515625 
Q 47.21875 21.78125 47.21875 15.09375 
Q 47.21875 7.46875 41.1875 3.015625 
Q 35.15625 -1.421875 24.609375 -1.421875 
Q 20.21875 -1.421875 15.453125 -0.5625 
Q 10.6875 0.296875 5.421875 2 
L 5.421875 11.28125 
Q 10.40625 8.6875 15.234375 7.390625 
Q 20.0625 6.109375 24.8125 6.109375 
Q 31.15625 6.109375 34.5625 8.28125 
Q 37.984375 10.453125 37.984375 14.40625 
Q 37.984375 18.0625 35.515625 20.015625 
Q 33.0625 21.96875 24.703125 23.78125 
L 21.578125 24.515625 
Q 13.234375 26.265625 9.515625 29.90625 
Q 5.8125 33.546875 5.8125 39.890625 
Q 5.8125 47.609375 11.28125 51.796875 
Q 16.75 56 26.8125 56 
Q 31.78125 56 36.171875 55.265625 
Q 40.578125 54.546875 44.28125 53.078125 
z
" id="DejaVuSans-115"/>
     <path d="M 32.171875 -5.078125 
Q 28.375 -14.84375 24.75 -17.8125 
Q 21.140625 -20.796875 15.09375 -20.796875 
L 7.90625 -20.796875 
L 7.90625 -13.28125 
L 13.1875 -13.28125 
Q 16.890625 -13.28125 18.9375 -11.515625 
Q 21 -9.765625 23.484375 -3.21875 
L 25.09375 0.875 
L 2.984375 54.6875 
L 12.5 54.6875 
L 29.59375 11.921875 
L 46.6875 54.6875 
L 56.203125 54.6875 
z
" id="DejaVuSans-121"/>
     <path d="M 45.40625 46.390625 
L 45.40625 75.984375 
L 54.390625 75.984375 
L 54.390625 0 
L 45.40625 0 
L 45.40625 8.203125 
Q 42.578125 3.328125 38.25 0.953125 
Q 33.9375 -1.421875 27.875 -1.421875 
Q 17.96875 -1.421875 11.734375 6.484375 
Q 5.515625 14.40625 5.515625 27.296875 
Q 5.515625 40.1875 11.734375 48.09375 
Q 17.96875 56 27.875 56 
Q 33.9375 56 38.25 53.625 
Q 42.578125 51.265625 45.40625 46.390625 
z
M 14.796875 27.296875 
Q 14.796875 17.390625 18.875 11.75 
Q 22.953125 6.109375 30.078125 6.109375 
Q 37.203125 6.109375 41.296875 11.75 
Q 45.40625 17.390625 45.40625 27.296875 
Q 45.40625 37.203125 41.296875 42.84375 
Q 37.203125 48.484375 30.078125 48.484375 
Q 22.953125 48.484375 18.875 42.84375 
Q 14.796875 37.203125 14.796875 27.296875 
z
" id="DejaVuSans-100"/>
     <path d="M 15.09375 12.40625 
L 25 12.40625 
L 25 0 
L 15.09375 0 
z
M 15.09375 72.90625 
L 25 72.90625 
L 25 40.921875 
L 24.03125 23.484375 
L 16.109375 23.484375 
L 15.09375 40.921875 
z
" id="DejaVuSans-33"/>
    </defs>
    <g transform="translate(15.586664 315.636909)scale(0.1 -0.1)">
     <use xlink:href="#DejaVuSans-49"/>
     <use x="63.623047" xlink:href="#DejaVuSans-50"/>
     <use x="127.246094" xlink:href="#DejaVuSans-58"/>
     <use x="160.9375" xlink:href="#DejaVuSans-51"/>
     <use x="224.560547" xlink:href="#DejaVuSans-52"/>
     <use x="288.183594" xlink:href="#DejaVuSans-32"/>
     <use x="319.970703" xlink:href="#DejaVuSans-109"/>
     <use x="417.382812" xlink:href="#DejaVuSans-97"/>
     <use x="478.662109" xlink:href="#DejaVuSans-107"/>
     <use x="536.525391" xlink:href="#DejaVuSans-101"/>
     <use x="598.048828" xlink:href="#DejaVuSans-115"/>
     <use x="650.148438" xlink:href="#DejaVuSans-32"/>
     <use x="681.935547" xlink:href="#DejaVuSans-109"/>
     <use x="779.347656" xlink:href="#DejaVuSans-121"/>
     <use x="838.527344" xlink:href="#DejaVuSans-32"/>
     <use x="870.314453" xlink:href="#DejaVuSans-100"/>
     <use x="933.791016" xlink:href="#DejaVuSans-97"/>
     <use x="995.070312" xlink:href="#DejaVuSans-121"/>
     <use x="1054.25" xlink:href="#DejaVuSans-33"/>
    </g>
   </g>
   <g id="text_6">
    <!-- Distribution of the 45 special times on a 24 hour circle.  -->
    <defs>
     <path d="M 19.671875 64.796875 
L 19.671875 8.109375 
L 31.59375 8.109375 
Q 46.6875 8.109375 53.6875 14.9375 
Q 60.6875 21.78125 60.6875 36.53125 
Q 60.6875 51.171875 53.6875 57.984375 
Q 46.6875 64.796875 31.59375 64.796875 
z
M 9.8125 72.90625 
L 30.078125 72.90625 
Q 51.265625 72.90625 61.171875 64.09375 
Q 71.09375 55.28125 71.09375 36.53125 
Q 71.09375 17.671875 61.125 8.828125 
Q 51.171875 0 30.078125 0 
L 9.8125 0 
z
" id="DejaVuSans-68"/>
     <path d="M 9.421875 54.6875 
L 18.40625 54.6875 
L 18.40625 0 
L 9.421875 0 
z
M 9.421875 75.984375 
L 18.40625 75.984375 
L 18.40625 64.59375 
L 9.421875 64.59375 
z
" id="DejaVuSans-105"/>
     <path d="M 18.3125 70.21875 
L 18.3125 54.6875 
L 36.8125 54.6875 
L 36.8125 47.703125 
L 18.3125 47.703125 
L 18.3125 18.015625 
Q 18.3125 11.328125 20.140625 9.421875 
Q 21.96875 7.515625 27.59375 7.515625 
L 36.8125 7.515625 
L 36.8125 0 
L 27.59375 0 
Q 17.1875 0 13.234375 3.875 
Q 9.28125 7.765625 9.28125 18.015625 
L 9.28125 47.703125 
L 2.6875 47.703125 
L 2.6875 54.6875 
L 9.28125 54.6875 
L 9.28125 70.21875 
z
" id="DejaVuSans-116"/>
     <path d="M 41.109375 46.296875 
Q 39.59375 47.171875 37.8125 47.578125 
Q 36.03125 48 33.890625 48 
Q 26.265625 48 22.1875 43.046875 
Q 18.109375 38.09375 18.109375 28.8125 
L 18.109375 0 
L 9.078125 0 
L 9.078125 54.6875 
L 18.109375 54.6875 
L 18.109375 46.1875 
Q 20.953125 51.171875 25.484375 53.578125 
Q 30.03125 56 36.53125 56 
Q 37.453125 56 38.578125 55.875 
Q 39.703125 55.765625 41.0625 55.515625 
z
" id="DejaVuSans-114"/>
     <path d="M 48.6875 27.296875 
Q 48.6875 37.203125 44.609375 42.84375 
Q 40.53125 48.484375 33.40625 48.484375 
Q 26.265625 48.484375 22.1875 42.84375 
Q 18.109375 37.203125 18.109375 27.296875 
Q 18.109375 17.390625 22.1875 11.75 
Q 26.265625 6.109375 33.40625 6.109375 
Q 40.53125 6.109375 44.609375 11.75 
Q 48.6875 17.390625 48.6875 27.296875 
z
M 18.109375 46.390625 
Q 20.953125 51.265625 25.265625 53.625 
Q 29.59375 56 35.59375 56 
Q 45.5625 56 51.78125 48.09375 
Q 58.015625 40.1875 58.015625 27.296875 
Q 58.015625 14.40625 51.78125 6.484375 
Q 45.5625 -1.421875 35.59375 -1.421875 
Q 29.59375 -1.421875 25.265625 0.953125 
Q 20.953125 3.328125 18.109375 8.203125 
L 18.109375 0 
L 9.078125 0 
L 9.078125 75.984375 
L 18.109375 75.984375 
z
" id="DejaVuSans-98"/>
     <path d="M 8.5 21.578125 
L 8.5 54.6875 
L 17.484375 54.6875 
L 17.484375 21.921875 
Q 17.484375 14.15625 20.5 10.265625 
Q 23.53125 6.390625 29.59375 6.390625 
Q 36.859375 6.390625 41.078125 11.03125 
Q 45.3125 15.671875 45.3125 23.6875 
L 45.3125 54.6875 
L 54.296875 54.6875 
L 54.296875 0 
L 45.3125 0 
L 45.3125 8.40625 
Q 42.046875 3.421875 37.71875 1 
Q 33.40625 -1.421875 27.6875 -1.421875 
Q 18.265625 -1.421875 13.375 4.4375 
Q 8.5 10.296875 8.5 21.578125 
z
M 31.109375 56 
z
" id="DejaVuSans-117"/>
     <path d="M 30.609375 48.390625 
Q 23.390625 48.390625 19.1875 42.75 
Q 14.984375 37.109375 14.984375 27.296875 
Q 14.984375 17.484375 19.15625 11.84375 
Q 23.34375 6.203125 30.609375 6.203125 
Q 37.796875 6.203125 41.984375 11.859375 
Q 46.1875 17.53125 46.1875 27.296875 
Q 46.1875 37.015625 41.984375 42.703125 
Q 37.796875 48.390625 30.609375 48.390625 
z
M 30.609375 56 
Q 42.328125 56 49.015625 48.375 
Q 55.71875 40.765625 55.71875 27.296875 
Q 55.71875 13.875 49.015625 6.21875 
Q 42.328125 -1.421875 30.609375 -1.421875 
Q 18.84375 -1.421875 12.171875 6.21875 
Q 5.515625 13.875 5.515625 27.296875 
Q 5.515625 40.765625 12.171875 48.375 
Q 18.84375 56 30.609375 56 
z
" id="DejaVuSans-111"/>
     <path d="M 54.890625 33.015625 
L 54.890625 0 
L 45.90625 0 
L 45.90625 32.71875 
Q 45.90625 40.484375 42.875 44.328125 
Q 39.84375 48.1875 33.796875 48.1875 
Q 26.515625 48.1875 22.3125 43.546875 
Q 18.109375 38.921875 18.109375 30.90625 
L 18.109375 0 
L 9.078125 0 
L 9.078125 54.6875 
L 18.109375 54.6875 
L 18.109375 46.1875 
Q 21.34375 51.125 25.703125 53.5625 
Q 30.078125 56 35.796875 56 
Q 45.21875 56 50.046875 50.171875 
Q 54.890625 44.34375 54.890625 33.015625 
z
" id="DejaVuSans-110"/>
     <path d="M 37.109375 75.984375 
L 37.109375 68.5 
L 28.515625 68.5 
Q 23.6875 68.5 21.796875 66.546875 
Q 19.921875 64.59375 19.921875 59.515625 
L 19.921875 54.6875 
L 34.71875 54.6875 
L 34.71875 47.703125 
L 19.921875 47.703125 
L 19.921875 0 
L 10.890625 0 
L 10.890625 47.703125 
L 2.296875 47.703125 
L 2.296875 54.6875 
L 10.890625 54.6875 
L 10.890625 58.5 
Q 10.890625 67.625 15.140625 71.796875 
Q 19.390625 75.984375 28.609375 75.984375 
z
" id="DejaVuSans-102"/>
     <path d="M 54.890625 33.015625 
L 54.890625 0 
L 45.90625 0 
L 45.90625 32.71875 
Q 45.90625 40.484375 42.875 44.328125 
Q 39.84375 48.1875 33.796875 48.1875 
Q 26.515625 48.1875 22.3125 43.546875 
Q 18.109375 38.921875 18.109375 30.90625 
L 18.109375 0 
L 9.078125 0 
L 9.078125 75.984375 
L 18.109375 75.984375 
L 18.109375 46.1875 
Q 21.34375 51.125 25.703125 53.5625 
Q 30.078125 56 35.796875 56 
Q 45.21875 56 50.046875 50.171875 
Q 54.890625 44.34375 54.890625 33.015625 
z
" id="DejaVuSans-104"/>
     <path d="M 10.796875 72.90625 
L 49.515625 72.90625 
L 49.515625 64.59375 
L 19.828125 64.59375 
L 19.828125 46.734375 
Q 21.96875 47.46875 24.109375 47.828125 
Q 26.265625 48.1875 28.421875 48.1875 
Q 40.625 48.1875 47.75 41.5 
Q 54.890625 34.8125 54.890625 23.390625 
Q 54.890625 11.625 47.5625 5.09375 
Q 40.234375 -1.421875 26.90625 -1.421875 
Q 22.3125 -1.421875 17.546875 -0.640625 
Q 12.796875 0.140625 7.71875 1.703125 
L 7.71875 11.625 
Q 12.109375 9.234375 16.796875 8.0625 
Q 21.484375 6.890625 26.703125 6.890625 
Q 35.15625 6.890625 40.078125 11.328125 
Q 45.015625 15.765625 45.015625 23.390625 
Q 45.015625 31 40.078125 35.4375 
Q 35.15625 39.890625 26.703125 39.890625 
Q 22.75 39.890625 18.8125 39.015625 
Q 14.890625 38.140625 10.796875 36.28125 
z
" id="DejaVuSans-53"/>
     <path d="M 18.109375 8.203125 
L 18.109375 -20.796875 
L 9.078125 -20.796875 
L 9.078125 54.6875 
L 18.109375 54.6875 
L 18.109375 46.390625 
Q 20.953125 51.265625 25.265625 53.625 
Q 29.59375 56 35.59375 56 
Q 45.5625 56 51.78125 48.09375 
Q 58.015625 40.1875 58.015625 27.296875 
Q 58.015625 14.40625 51.78125 6.484375 
Q 45.5625 -1.421875 35.59375 -1.421875 
Q 29.59375 -1.421875 25.265625 0.953125 
Q 20.953125 3.328125 18.109375 8.203125 
z
M 48.6875 27.296875 
Q 48.6875 37.203125 44.609375 42.84375 
Q 40.53125 48.484375 33.40625 48.484375 
Q 26.265625 48.484375 22.1875 42.84375 
Q 18.109375 37.203125 18.109375 27.296875 
Q 18.109375 17.390625 22.1875 11.75 
Q 26.265625 6.109375 33.40625 6.109375 
Q 40.53125 6.109375 44.609375 11.75 
Q 48.6875 17.390625 48.6875 27.296875 
z
" id="DejaVuSans-112"/>
     <path d="M 48.78125 52.59375 
L 48.78125 44.1875 
Q 44.96875 46.296875 41.140625 47.34375 
Q 37.3125 48.390625 33.40625 48.390625 
Q 24.65625 48.390625 19.8125 42.84375 
Q 14.984375 37.3125 14.984375 27.296875 
Q 14.984375 17.28125 19.8125 11.734375 
Q 24.65625 6.203125 33.40625 6.203125 
Q 37.3125 6.203125 41.140625 7.25 
Q 44.96875 8.296875 48.78125 10.40625 
L 48.78125 2.09375 
Q 45.015625 0.34375 40.984375 -0.53125 
Q 36.96875 -1.421875 32.421875 -1.421875 
Q 20.0625 -1.421875 12.78125 6.34375 
Q 5.515625 14.109375 5.515625 27.296875 
Q 5.515625 40.671875 12.859375 48.328125 
Q 20.21875 56 33.015625 56 
Q 37.15625 56 41.109375 55.140625 
Q 45.0625 54.296875 48.78125 52.59375 
z
" id="DejaVuSans-99"/>
     <path d="M 9.421875 75.984375 
L 18.40625 75.984375 
L 18.40625 0 
L 9.421875 0 
z
" id="DejaVuSans-108"/>
     <path d="M 10.6875 12.40625 
L 21 12.40625 
L 21 0 
L 10.6875 0 
z
" id="DejaVuSans-46"/>
    </defs>
    <g transform="translate(7.2 16.318125)scale(0.12 -0.12)">
     <use xlink:href="#DejaVuSans-68"/>
     <use x="77.001953" xlink:href="#DejaVuSans-105"/>
     <use x="104.785156" xlink:href="#DejaVuSans-115"/>
     <use x="156.884766" xlink:href="#DejaVuSans-116"/>
     <use x="196.09375" xlink:href="#DejaVuSans-114"/>
     <use x="237.207031" xlink:href="#DejaVuSans-105"/>
     <use x="264.990234" xlink:href="#DejaVuSans-98"/>
     <use x="328.466797" xlink:href="#DejaVuSans-117"/>
     <use x="391.845703" xlink:href="#DejaVuSans-116"/>
     <use x="431.054688" xlink:href="#DejaVuSans-105"/>
     <use x="458.837891" xlink:href="#DejaVuSans-111"/>
     <use x="520.019531" xlink:href="#DejaVuSans-110"/>
     <use x="583.398438" xlink:href="#DejaVuSans-32"/>
     <use x="615.185547" xlink:href="#DejaVuSans-111"/>
     <use x="676.367188" xlink:href="#DejaVuSans-102"/>
     <use x="711.572266" xlink:href="#DejaVuSans-32"/>
     <use x="743.359375" xlink:href="#DejaVuSans-116"/>
     <use x="782.568359" xlink:href="#DejaVuSans-104"/>
     <use x="845.947266" xlink:href="#DejaVuSans-101"/>
     <use x="907.470703" xlink:href="#DejaVuSans-32"/>
     <use x="939.257812" xlink:href="#DejaVuSans-52"/>
     <use x="1002.880859" xlink:href="#DejaVuSans-53"/>
     <use x="1066.503906" xlink:href="#DejaVuSans-32"/>
     <use x="1098.291016" xlink:href="#DejaVuSans-115"/>
     <use x="1150.390625" xlink:href="#DejaVuSans-112"/>
     <use x="1213.867188" xlink:href="#DejaVuSans-101"/>
     <use x="1275.390625" xlink:href="#DejaVuSans-99"/>
     <use x="1330.371094" xlink:href="#DejaVuSans-105"/>
     <use x="1358.154297" xlink:href="#DejaVuSans-97"/>
     <use x="1419.433594" xlink:href="#DejaVuSans-108"/>
     <use x="1447.216797" xlink:href="#DejaVuSans-32"/>
     <use x="1479.003906" xlink:href="#DejaVuSans-116"/>
     <use x="1518.212891" xlink:href="#DejaVuSans-105"/>
     <use x="1545.996094" xlink:href="#DejaVuSans-109"/>
     <use x="1643.408203" xlink:href="#DejaVuSans-101"/>
     <use x="1704.931641" xlink:href="#DejaVuSans-115"/>
     <use x="1757.03125" xlink:href="#DejaVuSans-32"/>
     <use x="1788.818359" xlink:href="#DejaVuSans-111"/>
     <use x="1850" xlink:href="#DejaVuSans-110"/>
     <use x="1913.378906" xlink:href="#DejaVuSans-32"/>
     <use x="1945.166016" xlink:href="#DejaVuSans-97"/>
     <use x="2006.445312" xlink:href="#DejaVuSans-32"/>
     <use x="2038.232422" xlink:href="#DejaVuSans-50"/>
     <use x="2101.855469" xlink:href="#DejaVuSans-52"/>
     <use x="2165.478516" xlink:href="#DejaVuSans-32"/>
     <use x="2197.265625" xlink:href="#DejaVuSans-104"/>
     <use x="2260.644531" xlink:href="#DejaVuSans-111"/>
     <use x="2321.826172" xlink:href="#DejaVuSans-117"/>
     <use x="2385.205078" xlink:href="#DejaVuSans-114"/>
     <use x="2426.318359" xlink:href="#DejaVuSans-32"/>
     <use x="2458.105469" xlink:href="#DejaVuSans-99"/>
     <use x="2513.085938" xlink:href="#DejaVuSans-105"/>
     <use x="2540.869141" xlink:href="#DejaVuSans-114"/>
     <use x="2581.951172" xlink:href="#DejaVuSans-99"/>
     <use x="2636.931641" xlink:href="#DejaVuSans-108"/>
     <use x="2664.714844" xlink:href="#DejaVuSans-101"/>
     <use x="2726.238281" xlink:href="#DejaVuSans-46"/>
     <use x="2758.025391" xlink:href="#DejaVuSans-32"/>
    </g>
    <!-- Most of the special times are concentrated around -->
    <defs>
     <path d="M 9.8125 72.90625 
L 24.515625 72.90625 
L 43.109375 23.296875 
L 61.8125 72.90625 
L 76.515625 72.90625 
L 76.515625 0 
L 66.890625 0 
L 66.890625 64.015625 
L 48.09375 14.015625 
L 38.1875 14.015625 
L 19.390625 64.015625 
L 19.390625 0 
L 9.8125 0 
z
" id="DejaVuSans-77"/>
    </defs>
    <g transform="translate(22.6875 29.7555)scale(0.12 -0.12)">
     <use xlink:href="#DejaVuSans-77"/>
     <use x="86.279297" xlink:href="#DejaVuSans-111"/>
     <use x="147.460938" xlink:href="#DejaVuSans-115"/>
     <use x="199.560547" xlink:href="#DejaVuSans-116"/>
     <use x="238.769531" xlink:href="#DejaVuSans-32"/>
     <use x="270.556641" xlink:href="#DejaVuSans-111"/>
     <use x="331.738281" xlink:href="#DejaVuSans-102"/>
     <use x="366.943359" xlink:href="#DejaVuSans-32"/>
     <use x="398.730469" xlink:href="#DejaVuSans-116"/>
     <use x="437.939453" xlink:href="#DejaVuSans-104"/>
     <use x="501.318359" xlink:href="#DejaVuSans-101"/>
     <use x="562.841797" xlink:href="#DejaVuSans-32"/>
     <use x="594.628906" xlink:href="#DejaVuSans-115"/>
     <use x="646.728516" xlink:href="#DejaVuSans-112"/>
     <use x="710.205078" xlink:href="#DejaVuSans-101"/>
     <use x="771.728516" xlink:href="#DejaVuSans-99"/>
     <use x="826.708984" xlink:href="#DejaVuSans-105"/>
     <use x="854.492188" xlink:href="#DejaVuSans-97"/>
     <use x="915.771484" xlink:href="#DejaVuSans-108"/>
     <use x="943.554688" xlink:href="#DejaVuSans-32"/>
     <use x="975.341797" xlink:href="#DejaVuSans-116"/>
     <use x="1014.550781" xlink:href="#DejaVuSans-105"/>
     <use x="1042.333984" xlink:href="#DejaVuSans-109"/>
     <use x="1139.746094" xlink:href="#DejaVuSans-101"/>
     <use x="1201.269531" xlink:href="#DejaVuSans-115"/>
     <use x="1253.369141" xlink:href="#DejaVuSans-32"/>
     <use x="1285.15625" xlink:href="#DejaVuSans-97"/>
     <use x="1346.435547" xlink:href="#DejaVuSans-114"/>
     <use x="1387.517578" xlink:href="#DejaVuSans-101"/>
     <use x="1449.041016" xlink:href="#DejaVuSans-32"/>
     <use x="1480.828125" xlink:href="#DejaVuSans-99"/>
     <use x="1535.808594" xlink:href="#DejaVuSans-111"/>
     <use x="1596.990234" xlink:href="#DejaVuSans-110"/>
     <use x="1660.369141" xlink:href="#DejaVuSans-99"/>
     <use x="1715.349609" xlink:href="#DejaVuSans-101"/>
     <use x="1776.873047" xlink:href="#DejaVuSans-110"/>
     <use x="1840.251953" xlink:href="#DejaVuSans-116"/>
     <use x="1879.460938" xlink:href="#DejaVuSans-114"/>
     <use x="1920.574219" xlink:href="#DejaVuSans-97"/>
     <use x="1981.853516" xlink:href="#DejaVuSans-116"/>
     <use x="2021.0625" xlink:href="#DejaVuSans-101"/>
     <use x="2082.585938" xlink:href="#DejaVuSans-100"/>
     <use x="2146.0625" xlink:href="#DejaVuSans-32"/>
     <use x="2177.849609" xlink:href="#DejaVuSans-97"/>
     <use x="2239.128906" xlink:href="#DejaVuSans-114"/>
     <use x="2280.210938" xlink:href="#DejaVuSans-111"/>
     <use x="2341.392578" xlink:href="#DejaVuSans-117"/>
     <use x="2404.771484" xlink:href="#DejaVuSans-110"/>
     <use x="2468.150391" xlink:href="#DejaVuSans-100"/>
    </g>
    <!-- midnight, the early hours of the day, and noon. -->
    <defs>
     <path d="M 45.40625 27.984375 
Q 45.40625 37.75 41.375 43.109375 
Q 37.359375 48.484375 30.078125 48.484375 
Q 22.859375 48.484375 18.828125 43.109375 
Q 14.796875 37.75 14.796875 27.984375 
Q 14.796875 18.265625 18.828125 12.890625 
Q 22.859375 7.515625 30.078125 7.515625 
Q 37.359375 7.515625 41.375 12.890625 
Q 45.40625 18.265625 45.40625 27.984375 
z
M 54.390625 6.78125 
Q 54.390625 -7.171875 48.1875 -13.984375 
Q 42 -20.796875 29.203125 -20.796875 
Q 24.46875 -20.796875 20.265625 -20.09375 
Q 16.0625 -19.390625 12.109375 -17.921875 
L 12.109375 -9.1875 
Q 16.0625 -11.328125 19.921875 -12.34375 
Q 23.78125 -13.375 27.78125 -13.375 
Q 36.625 -13.375 41.015625 -8.765625 
Q 45.40625 -4.15625 45.40625 5.171875 
L 45.40625 9.625 
Q 42.625 4.78125 38.28125 2.390625 
Q 33.9375 0 27.875 0 
Q 17.828125 0 11.671875 7.65625 
Q 5.515625 15.328125 5.515625 27.984375 
Q 5.515625 40.671875 11.671875 48.328125 
Q 17.828125 56 27.875 56 
Q 33.9375 56 38.28125 53.609375 
Q 42.625 51.21875 45.40625 46.390625 
L 45.40625 54.6875 
L 54.390625 54.6875 
z
" id="DejaVuSans-103"/>
     <path d="M 11.71875 12.40625 
L 22.015625 12.40625 
L 22.015625 4 
L 14.015625 -11.625 
L 7.71875 -11.625 
L 11.71875 4 
z
" id="DejaVuSans-44"/>
    </defs>
    <g transform="translate(32.183438 43.192875)scale(0.12 -0.12)">
     <use xlink:href="#DejaVuSans-109"/>
     <use x="97.412109" xlink:href="#DejaVuSans-105"/>
     <use x="125.195312" xlink:href="#DejaVuSans-100"/>
     <use x="188.671875" xlink:href="#DejaVuSans-110"/>
     <use x="252.050781" xlink:href="#DejaVuSans-105"/>
     <use x="279.833984" xlink:href="#DejaVuSans-103"/>
     <use x="343.310547" xlink:href="#DejaVuSans-104"/>
     <use x="406.689453" xlink:href="#DejaVuSans-116"/>
     <use x="445.898438" xlink:href="#DejaVuSans-44"/>
     <use x="477.685547" xlink:href="#DejaVuSans-32"/>
     <use x="509.472656" xlink:href="#DejaVuSans-116"/>
     <use x="548.681641" xlink:href="#DejaVuSans-104"/>
     <use x="612.060547" xlink:href="#DejaVuSans-101"/>
     <use x="673.583984" xlink:href="#DejaVuSans-32"/>
     <use x="705.371094" xlink:href="#DejaVuSans-101"/>
     <use x="766.894531" xlink:href="#DejaVuSans-97"/>
     <use x="828.173828" xlink:href="#DejaVuSans-114"/>
     <use x="869.287109" xlink:href="#DejaVuSans-108"/>
     <use x="897.070312" xlink:href="#DejaVuSans-121"/>
     <use x="956.25" xlink:href="#DejaVuSans-32"/>
     <use x="988.037109" xlink:href="#DejaVuSans-104"/>
     <use x="1051.416016" xlink:href="#DejaVuSans-111"/>
     <use x="1112.597656" xlink:href="#DejaVuSans-117"/>
     <use x="1175.976562" xlink:href="#DejaVuSans-114"/>
     <use x="1217.089844" xlink:href="#DejaVuSans-115"/>
     <use x="1269.189453" xlink:href="#DejaVuSans-32"/>
     <use x="1300.976562" xlink:href="#DejaVuSans-111"/>
     <use x="1362.158203" xlink:href="#DejaVuSans-102"/>
     <use x="1397.363281" xlink:href="#DejaVuSans-32"/>
     <use x="1429.150391" xlink:href="#DejaVuSans-116"/>
     <use x="1468.359375" xlink:href="#DejaVuSans-104"/>
     <use x="1531.738281" xlink:href="#DejaVuSans-101"/>
     <use x="1593.261719" xlink:href="#DejaVuSans-32"/>
     <use x="1625.048828" xlink:href="#DejaVuSans-100"/>
     <use x="1688.525391" xlink:href="#DejaVuSans-97"/>
     <use x="1749.804688" xlink:href="#DejaVuSans-121"/>
     <use x="1808.984375" xlink:href="#DejaVuSans-44"/>
     <use x="1840.771484" xlink:href="#DejaVuSans-32"/>
     <use x="1872.558594" xlink:href="#DejaVuSans-97"/>
     <use x="1933.837891" xlink:href="#DejaVuSans-110"/>
     <use x="1997.216797" xlink:href="#DejaVuSans-100"/>
     <use x="2060.693359" xlink:href="#DejaVuSans-32"/>
     <use x="2092.480469" xlink:href="#DejaVuSans-110"/>
     <use x="2155.859375" xlink:href="#DejaVuSans-111"/>
     <use x="2217.041016" xlink:href="#DejaVuSans-111"/>
     <use x="2278.222656" xlink:href="#DejaVuSans-110"/>
     <use x="2341.601562" xlink:href="#DejaVuSans-46"/>
    </g>
    <!--  -->
    <g transform="translate(174.584063 56.63025)scale(0.12 -0.12)"/>
   </g>
  </g>
 </g>
 <defs>
  <clipPath id="pd9f728325f">
   <path d="M 283.304062 182.22225 
C 283.304062 167.94527 280.491809 153.807116 275.028245 140.616907 
C 269.564682 127.426698 261.556061 115.44095 251.460712 105.345601 
C 241.365363 95.250252 229.379614 87.241631 216.189405 81.778067 
C 202.999196 76.314504 188.861042 73.50225 174.584063 73.50225 
C 160.307083 73.50225 146.168929 76.314504 132.97872 81.778067 
C 119.788511 87.241631 107.802762 95.250252 97.707413 105.345601 
C 87.612064 115.44095 79.603443 127.426698 74.13988 140.616907 
C 68.676316 153.807116 65.864063 167.94527 65.864063 182.22225 
C 65.864063 196.49923 68.676316 210.637384 74.13988 223.827593 
C 79.603443 237.017802 87.612064 249.00355 97.707413 259.098899 
C 107.802762 269.194248 119.788511 277.202869 132.97872 282.666433 
C 146.168929 288.129996 160.307083 290.94225 174.584062 290.94225 
C 188.861042 290.94225 202.999196 288.129996 216.189405 282.666433 
C 229.379614 277.202869 241.365363 269.194248 251.460712 259.098899 
C 261.556061 249.00355 269.564682 237.017802 275.028245 223.827593 
C 280.491809 210.637384 283.304062 196.49923 283.304062 182.22225 
M 174.584063 182.22225 
C 174.584063 182.22225 174.584063 182.22225 174.584063 182.22225 
C 174.584063 182.22225 174.584063 182.22225 174.584063 182.22225 
C 174.584063 182.22225 174.584063 182.22225 174.584063 182.22225 
C 174.584063 182.22225 174.584063 182.22225 174.584063 182.22225 
C 174.584063 182.22225 174.584063 182.22225 174.584063 182.22225 
C 174.584063 182.22225 174.584063 182.22225 174.584063 182.22225 
C 174.584063 182.22225 174.584063 182.22225 174.584063 182.22225 
C 174.584063 182.22225 174.584063 182.22225 174.584063 182.22225 
C 174.584063 182.22225 174.584063 182.22225 174.584063 182.22225 
C 174.584063 182.22225 174.584063 182.22225 174.584063 182.22225 
C 174.584063 182.22225 174.584063 182.22225 174.584063 182.22225 
C 174.584063 182.22225 174.584063 182.22225 174.584063 182.22225 
C 174.584063 182.22225 174.584063 182.22225 174.584063 182.22225 
C 174.584063 182.22225 174.584063 182.22225 174.584063 182.22225 
C 174.584063 182.22225 174.584063 182.22225 174.584063 182.22225 
C 174.584063 182.22225 174.584063 182.22225 174.584063 182.22225 
M 283.304062 182.22225 
z
"/>
  </clipPath>
 </defs>
</svg>
